<?xml version="1.0" encoding="UTF-8"?>
<svg id="Layer_1" xmlns="http://www.w3.org/2000/svg" version="1.1" viewBox="0 0 2000 2944">
  <!-- Generator: Adobe Illustrator 29.5.0, SVG Export Plug-In . SVG Version: 2.1.0 Build 137)  -->
  <defs>
    <style>
      .st0, .st1 {
        fill: #07212c;
      }

      .st1 {
        stroke: #178890;
        stroke-miterlimit: 10;
        stroke-width: 12px;
      }

      .st2 {
        fill: #178890;
      }
    </style>
  </defs>
  <g>
    <g>
      <path class="st2" d="M271.88,1228.86l-.15-4.09c6.47-.19,11.56-5.13,11.37-11.02l-.48-13.89c-9.04-257.34-19.27-549.02,176.84-750.76,2.08-2.13,3.12-4.87,2.93-7.69-.19-2.85-1.59-5.45-3.94-7.34-2.14-1.71-4.91-2.67-7.77-2.67-3.35,0-6.55,1.31-8.77,3.59-202.3,208.07-191.9,504.23-182.74,765.55l.48,13.93c.21,5.78,5.35,10.3,11.72,10.3l.52,4.1Z"/>
      <path class="st2" d="M997.43,1945.61c170.9,0,336.51-55.05,466.32-155.01,4.93-3.8,5.54-10.54,1.37-15.03-4.03-4.37-11.78-4.92-16.53-1.25-125.6,96.71-285.8,149.98-451.08,149.98-82.05,0-162.63-12.98-239.51-38.6-245.57-81.7-428.11-290.04-465.04-530.76-1.11-7.35-2.12-14.68-2.97-22.01-.64-5.44-5.74-9.53-11.86-9.53-4.15.34-6.97,1.73-8.94,3.95-1.97,2.21-2.86,4.98-2.54,7.81.88,7.57,1.9,15.14,3.06,22.74,38.1,248.43,226.6,463.48,480.21,547.84,79.43,26.45,162.7,39.87,247.49,39.87Z"/>
      <path class="st2" d="M1737.58,1043.14l-.06-1.81c-1.21-36.52-2.45-74.28-2.72-111.21-1.2-166.78-36.92-296.6-112.43-408.55-134.58-199.5-373.91-323.44-624.6-323.44-168.18,0-332.79,54.52-463.5,153.54-2.41,1.83-3.9,4.4-4.18,7.25-.28,2.84.66,5.6,2.68,7.78,3.96,4.34,11.67,5.02,16.51,1.38,126.53-95.85,285.81-148.62,448.49-148.62,242.59,0,474.24,120.04,604.59,313.28,73.19,108.48,107.82,234.81,108.98,397.54.28,38.43,1.62,78.29,2.8,113.46,3.58,107.87,7.28,219.31-12.74,326.26-22.19,118.63-78.6,230.04-163.17,322.17-2.01,2.18-2.95,4.95-2.68,7.78.28,2.84,1.77,5.41,4.17,7.23,4.82,3.7,12.58,3.03,16.5-1.33,87.25-95.04,145.43-209.93,168.31-332.26,20.41-109.04,16.66-221.58,13.04-330.42Z"/>
      <path class="st2" d="M936.86,276.25c-9.38.8-17.78,1.72-26.14,2.81-240.31,31.02-448.62,188.1-530.73,400.18-2.14,5.56,1.07,11.66,7.17,13.61,5.96,1.89,12.89-1.13,14.96-6.52,79.24-204.68,280.18-356.25,511.91-386.14,8.05-1.05,16.1-1.94,24.21-2.67,6.43-.59,11.14-5.83,10.49-11.67-.61-5.57-5.6-9.61-11.87-9.61Z"/>
      <path class="st2" d="M361.3,789.26c-.64-.07-1.11-.1-1.57-.1-5.82,0-10.61,4.2-11.16,9.78-11.97,123.03-14.03,260.11-6.13,407.43l.06,87.66c22.98,221.67,156.87,416.1,349.43,507.05,5.55,2.63,12.9.52,15.82-4.57,1.44-2.52,1.72-5.4.77-8.12-.94-2.72-2.99-4.94-5.77-6.25-185.52-87.61-314.59-275.03-336.84-489.11l-.02-87.17c-7.87-146.65-5.83-282.99,6.05-405.03.57-5.86-4.2-11.05-10.63-11.57Z"/>
      <path class="st2" d="M1626.94,711.79c-75.63-236.9-303.94-411.97-568.13-435.61h-.02c-6.96,0-12.2,4.13-12.8,9.6-.31,2.83.62,5.6,2.61,7.8,1.99,2.21,4.79,3.58,7.91,3.85,254.72,22.78,474.91,191.71,547.91,420.33,32.02,100.27,30.44,209.08,28.91,314.31l-.02,1.28c-.48,33.81-.97,68.78-.3,102.56,2.34,119.33-.66,257.08-66.35,381.75-106.49,202.1-330.5,332.68-570.67,332.69-14,0-28.14-.47-42.08-1.35-47.78-3.06-95.01-11.17-140.37-24.12-1.14-.33-2.35-.49-3.55-.49-5.13,0-9.62,3.01-11.16,7.47-.94,2.72-.66,5.61.79,8.14,1.45,2.53,3.9,4.39,6.89,5.24,46.98,13.42,96.01,21.84,145.74,25.04,14.73.94,29.41,1.41,43.63,1.41,249.23-.02,481.59-135.36,591.95-344.77,67.89-128.88,71.03-269.59,68.65-391.38-.66-33.95-.16-68.98.32-102.86,1.55-107.11,3.14-217.55-29.84-320.88Z"/>
      <path class="st2" d="M995.32,1794.97c178.48,0,349.79-78.21,458.26-209.2,1.88-2.26,2.69-5.06,2.26-7.88-.44-2.83-2.06-5.32-4.56-7.04-5.07-3.48-12.66-2.43-16.41,2.11-104.1,125.67-268.38,200.68-439.48,200.68-67.61,0-133.59-11.48-196.12-34.13-89.71-32.51-169.15-86.17-229.73-155.18-2.26-2.56-5.59-4.04-9.18-4.04-2.67,0-5.19.81-7.28,2.36-2.47,1.79-4.02,4.33-4.36,7.17-.34,2.83.55,5.62,2.5,7.83,63.11,71.91,145.88,127.82,239.37,161.7,65.27,23.64,134.15,35.63,204.73,35.63Z"/>
      <path class="st2" d="M1497.5,1477.87c-1.27,2.61-1.35,5.51-.21,8.18,1.14,2.66,3.34,4.74,6.19,5.88,5.77,2.31,12.94-.22,15.49-5.45,22.54-46.47,43.36-92.68,50.62-146.94,15.28-192.94,13.03-361.61-7.09-530.59-7.22-108.09-58-210.35-142.99-288.13-2.22-2.02-5.18-3.13-8.31-3.13s-6.07,1.1-8.3,3.11c-4.58,4.15-4.59,10.92-.03,15.08,80.97,74.07,129.36,171.69,136.27,274.9,19.98,167.96,22.23,335.39,7.1,526.71-6.81,50.89-26.94,95.44-48.74,140.39Z"/>
      <path class="st2" d="M477.52,656.15c-64.27,125.19-60.65,263.3-57.15,396.85l.44,16.79c.66,26.07.72,52.4.76,77.85.25,116.13.52,235.97,59.63,348.28,2.74,5.2,10.06,7.47,15.64,5.03,2.84-1.24,4.97-3.39,6-6.08,1.05-2.69.87-5.58-.48-8.15-56.84-108-57.07-220.21-57.31-339-.05-24.29-.09-51.74-.78-78.43l-.44-16.77c-3.45-131.15-6.99-266.68,54.95-387.35,90.47-176.28,290.66-294.76,498.28-295h0s.78-.01.78-.01c108.75,0,218.16,31.28,308.16,88.07,5.19,3.27,12.76,1.97,16.33-2.68,1.78-2.34,2.45-5.17,1.9-7.98-.56-2.79-2.28-5.23-4.85-6.85-93.88-59.25-208.04-91.88-321.47-91.88-216.97,0-426.02,123.49-520.39,307.3Z"/>
      <path class="st2" d="M997.78,424.16c-273.14,0-495.34,207.61-495.34,462.79v371.36c0,255.17,222.2,462.77,495.34,462.77s495.34-207.6,495.34-462.77v-371.36c0-255.18-222.2-462.79-495.34-462.79ZM1469.67,1258.31c0,243.41-211.68,441.44-471.89,441.44s-471.89-198.02-471.89-441.44v-371.36c0-243.42,211.68-441.46,471.89-441.46s471.89,198.03,471.89,441.46v371.36Z"/>
    </g>
    <g>
      <polygon class="st0" points="1383.7 477.5 1383.7 642.76 1074.16 641.18 1074.16 1587.86 995.67 1670.21 995.62 1670.21 917.49 1589.44 917.49 642.76 608.65 642.76 608.65 477.5 1383.7 477.5"/>
      <polygon class="st0" points="1244.06 990.18 1244.06 727.37 1218.74 727.37 1218.74 1000.81 1383.27 1164.59 1383.27 1397.44 995.7 1785 995.7 1698.67 1100.18 1596.33 1100.18 996.61 1219.35 1115.25 1220.2 1429.78 1245.62 1457.02 1245.62 1105.5 1100.76 961.31 1100.76 668.08 1383.7 668.08 1383.7 1129.19 1244.06 990.18"/>
      <polygon class="st0" points="891.16 1596.33 995.64 1698.67 995.64 1785 608.09 1397.44 608.09 996.61 727.26 1115.25 728.11 1429.78 753.51 1457.02 753.51 1105.5 608.65 961.31 608.65 668.08 891.59 668.08 891.59 1129.19 751.98 990.18 751.98 727.37 726.66 727.37 726.66 1000.81 891.16 1164.59 891.16 1596.33"/>
    </g>
  </g>
  <g>
    <g>
      <path class="st1" d="M370.91,2460.27c-16.07-17.83-24.1-43.4-24.1-76.72v-23.52h61.14v28.22c0,26.66,11.17,39.97,33.51,39.97,10.97,0,19.3-3.23,24.98-9.7,5.68-6.47,8.52-16.95,8.52-31.45,0-17.24-3.92-32.42-11.76-45.56-7.84-13.13-22.34-28.9-43.5-47.32-26.66-23.51-45.27-44.77-55.85-63.78-10.58-19-15.87-40.46-15.87-64.37,0-32.52,8.23-57.7,24.69-75.54,16.46-17.83,40.36-26.75,71.72-26.75s54.38,8.92,70.25,26.75c15.87,17.84,23.81,43.41,23.81,76.72v17.05h-61.14v-21.16c0-14.11-2.75-24.4-8.23-30.86-5.49-6.47-13.52-9.7-24.1-9.7-21.56,0-32.33,13.14-32.33,39.39,0,14.9,4.01,28.8,12.05,41.74,8.03,12.93,22.63,28.61,43.8,47.03,27.04,23.52,45.65,44.88,55.85,64.08,10.19,19.21,15.28,41.74,15.28,67.6,0,33.71-8.33,59.58-24.98,77.6-16.66,18.03-40.86,27.04-72.6,27.04s-55.07-8.91-71.13-26.75Z"/>
      <path class="st1" d="M676.6,2128.43h-67.6v-58.79h199.87v58.79h-67.6v352.72h-64.67v-352.72Z"/>
      <path class="st1" d="M902.33,2460.27c-16.07-17.83-24.1-43.4-24.1-76.72v-23.52h61.14v28.22c0,26.66,11.17,39.97,33.51,39.97,10.97,0,19.3-3.23,24.98-9.7,5.68-6.47,8.52-16.95,8.52-31.45,0-17.24-3.92-32.42-11.76-45.56-7.84-13.13-22.34-28.9-43.5-47.32-26.66-23.51-45.27-44.77-55.85-63.78-10.58-19-15.87-40.46-15.87-64.37,0-32.52,8.23-57.7,24.69-75.54,16.46-17.83,40.36-26.75,71.72-26.75s54.38,8.92,70.25,26.75c15.87,17.84,23.81,43.41,23.81,76.72v17.05h-61.14v-21.16c0-14.11-2.75-24.4-8.23-30.86-5.49-6.47-13.52-9.7-24.1-9.7-21.56,0-32.33,13.14-32.33,39.39,0,14.9,4.01,28.8,12.05,41.74,8.03,12.93,22.63,28.61,43.8,47.03,27.04,23.52,45.65,44.88,55.85,64.08,10.19,19.21,15.28,41.74,15.28,67.6,0,33.71-8.33,59.58-24.98,77.6-16.66,18.03-40.86,27.04-72.6,27.04s-55.07-8.91-71.13-26.75Z"/>
      <path class="st1" d="M1300.89,2069.64h64.67v411.5h-64.67v-411.5Z"/>
      <path class="st1" d="M1513.69,2128.43h-67.6v-58.79h199.87v58.79h-67.6v352.72h-64.67v-352.72Z"/>
    </g>
    <g>
      <rect class="st0" x="290.31" y="2572.03" width="1414.36" height="10.21"/>
      <g>
        <path class="st0" d="M303.88,2725.85l-3.77,19.7h-10.04l18.69-97.82h15.76l18.69,97.82h-10.88l-3.77-19.7h-24.69ZM305.28,2716.49h21.76l-11.02-56.45-10.74,56.45Z"/>
        <path class="st0" d="M439.32,2671.35v8.8h-10.32v-9.36c0-8.8-3.49-14.11-11.44-14.11s-11.44,5.31-11.44,14.11v51.7c0,8.8,3.63,14.11,11.44,14.11s11.44-5.31,11.44-14.11v-12.72h10.32v12.16c0,14.81-6.98,24.59-22.04,24.59s-21.9-9.78-21.9-24.59v-50.59c0-14.81,6.98-24.59,21.9-24.59s22.04,9.78,22.04,24.59Z"/>
        <path class="st0" d="M471.68,2725.85l-3.77,19.7h-10.04l18.69-97.82h15.76l18.69,97.82h-10.88l-3.77-19.7h-24.69ZM473.08,2716.49h21.76l-11.02-56.45-10.74,56.45Z"/>
        <path class="st0" d="M530.97,2745.56v-97.82h10.88v87.9h27.9v9.92h-38.78Z"/>
        <path class="st0" d="M589.41,2745.56v-97.82h10.88v87.9h27.9v9.92h-38.78Z"/>
        <path class="st0" d="M641.86,2691.76h26.64v9.78h-26.64v-9.78Z"/>
        <path class="st0" d="M700.31,2725.85l-3.77,19.7h-10.04l18.69-97.82h15.76l18.69,97.82h-10.88l-3.77-19.7h-24.69ZM701.7,2716.49h21.76l-11.02-56.45-10.74,56.45Z"/>
        <path class="st0" d="M757.78,2691.76h26.64v9.78h-26.64v-9.78Z"/>
        <path class="st0" d="M816.22,2745.56v-87.9h-17.99v-9.92h46.73v9.92h-17.99v87.9h-10.74Z"/>
        <path class="st0" d="M898.52,2691.06v9.78h-23.85v34.79h29.29v9.92h-40.17v-97.82h40.17v9.92h-29.29v33.4h23.85Z"/>
        <path class="st0" d="M942.04,2703.08l-5.72,9.64v32.84h-10.88v-97.82h10.88v47.23l25.94-47.23h11.02l-24.69,44.58,25.53,53.24h-11.16l-20.92-42.48Z"/>
        <path class="st0" d="M1026.98,2745.56v-97.82h10.88v87.9h27.9v9.92h-38.78Z"/>
        <path class="st0" d="M1085.43,2745.56v-97.82h10.88v87.9h27.9v9.92h-38.78Z"/>
        <path class="st0" d="M1186.98,2671.35v8.8h-10.32v-9.36c0-8.8-3.49-14.11-11.44-14.11s-11.44,5.31-11.44,14.11v51.7c0,8.8,3.63,14.11,11.44,14.11s11.44-5.31,11.44-14.11v-12.72h10.32v12.16c0,14.81-6.98,24.59-22.04,24.59s-21.9-9.78-21.9-24.59v-50.59c0-14.81,6.98-24.59,21.9-24.59s22.04,9.78,22.04,24.59Z"/>
        <path class="st0" d="M1284.48,2671.35v8.8h-10.32v-9.36c0-8.8-3.49-14.11-11.44-14.11s-11.44,5.31-11.44,14.11v51.7c0,8.8,3.63,14.11,11.44,14.11s11.44-5.31,11.44-14.11v-12.72h10.32v12.16c0,14.81-6.98,24.59-22.04,24.59s-21.9-9.78-21.9-24.59v-50.59c0-14.81,6.98-24.59,21.9-24.59s22.04,9.78,22.04,24.59Z"/>
        <path class="st0" d="M1304.98,2671.35c0-14.95,7.39-24.59,22.32-24.59s22.46,9.64,22.46,24.59v50.59c0,14.81-7.39,24.59-22.46,24.59s-22.32-9.78-22.32-24.59v-50.59ZM1315.72,2722.5c0,8.94,3.77,14.11,11.58,14.11s11.58-5.17,11.58-14.11v-51.7c0-8.8-3.63-14.11-11.58-14.11s-11.58,5.31-11.58,14.11v51.7Z"/>
        <path class="st0" d="M1407.5,2745.42h-10.46l-16.18-77.83v77.97h-9.49v-97.82h15.2l16.04,78.11,15.48-78.11h15.2v97.82h-10.32v-78.67l-15.48,78.53Z"/>
        <path class="st0" d="M1477.25,2647.74c15.34,0,21.9,9.08,21.9,23.89v11.74c0,15.51-7.25,23.62-22.74,23.62h-9.62v38.57h-10.88v-97.82h21.34ZM1476.41,2697.21c8.09,0,12-3.77,12-13.13v-13c0-8.94-3.21-13.41-11.16-13.41h-10.46v39.55h9.62Z"/>
        <path class="st0" d="M1528.3,2725.85l-3.77,19.7h-10.04l18.69-97.82h15.76l18.69,97.82h-10.88l-3.77-19.7h-24.69ZM1529.69,2716.49h21.76l-11.02-56.45-10.74,56.45Z"/>
        <path class="st0" d="M1597.21,2745.56h-9.76v-97.82h13.81l22.6,70.71v-70.71h9.62v97.82h-11.3l-24.97-79.09v79.09Z"/>
        <path class="st0" d="M1673.37,2710.48l-20.64-62.74h11.3l15.2,48.07,15.34-48.07h10.32l-20.78,62.74v35.07h-10.74v-35.07Z"/>
      </g>
    </g>
  </g>
</svg>